<svg width="158" height="140" viewBox="0 0 158 140" fill="none" xmlns="http://www.w3.org/2000/svg">
<path d="M83.3889 65.625V4.53906C83.3889 2.07812 85.3091 0 87.7778 0C121.709 0 149.222 27.4258 149.222 61.25C149.222 63.7109 147.138 65.625 144.669 65.625H83.3889ZM8.77783 74.375C8.77783 41.207 33.4928 13.7539 65.5591 9.37891C68.0827 9.02344 70.2223 11.0469 70.2223 13.5898V78.75L113.151 121.543C114.989 123.375 114.852 126.383 112.74 127.859C101.987 135.516 88.8202 140 74.6112 140C38.2657 140 8.77783 110.633 8.77783 74.375ZM153.172 78.75C155.723 78.75 157.726 80.8828 157.397 83.3984C155.284 98.6836 147.906 112.273 137.125 122.309C135.48 123.84 132.901 123.73 131.31 122.117L87.7778 78.75H153.172Z" fill="#00BEC6"/>
</svg>
