<svg width="638" height="595" viewBox="0 0 638 595" fill="none" xmlns="http://www.w3.org/2000/svg">
<path d="M429.743 421.419H201.042C181.819 421.419 166.179 405.78 166.179 386.556V157.855C166.179 138.631 181.819 122.992 201.042 122.992H429.743C448.967 122.992 464.606 138.631 464.606 157.855V386.556C464.606 405.78 448.967 421.419 429.743 421.419ZM201.042 128.57C184.869 128.57 171.758 141.682 171.758 157.855V386.556C171.758 402.73 184.869 415.841 201.042 415.841H361.242C415.248 415.841 459.028 372.06 459.028 318.054V157.855C459.028 141.682 445.917 128.57 429.743 128.57L201.042 128.57Z" fill="#DDE6E9"/>
<path d="M225.698 152.353C214.874 152.353 206.068 161.158 206.068 171.982V202.707C206.068 213.531 214.874 222.337 225.698 222.337H256.423C267.247 222.337 276.053 213.531 276.053 202.707V171.982C276.053 161.158 267.247 152.353 256.423 152.353H225.698Z" fill="#DDE6E9"/>
<path d="M225.698 238.847C214.874 238.847 206.068 247.653 206.068 258.477V289.202C206.068 300.026 214.874 308.832 225.698 308.832H256.423C267.247 308.832 276.053 300.026 276.053 289.202V258.477C276.053 247.653 267.247 238.847 256.423 238.847H225.698Z" fill="#DDE6E9"/>
<path d="M225.698 325.342C214.874 325.342 206.068 334.147 206.068 344.972V375.697C206.068 386.521 214.874 395.326 225.698 395.326H256.423C267.247 395.326 276.053 386.521 276.053 375.697V344.972C276.053 334.147 267.247 325.342 256.423 325.342H225.698Z" fill="#DDE6E9"/>
<path d="M246.073 77.3906C232.434 77.3906 221.339 88.4859 221.339 102.125V140.839C221.339 154.478 232.434 165.573 246.073 165.573H284.787C298.426 165.573 309.521 154.478 309.521 140.839V102.125C309.521 88.4859 298.426 77.3906 284.787 77.3906H246.073Z" fill="#00BEC6"/>
<path d="M373.53 185.581C359.891 185.581 348.796 196.676 348.796 210.315V249.029C348.796 262.668 359.891 273.764 373.53 273.764H412.244C425.883 273.764 436.978 262.668 436.978 249.029V210.315C436.978 196.676 425.883 185.581 412.244 185.581H373.53Z" fill="#00BEC6"/>
<path d="M318.118 575.256L310.253 575.19L306.772 544.146L318.379 544.244L318.118 575.256Z" fill="#FFB8B8"/>
<path d="M292.926 587.762C292.909 589.698 294.47 591.291 296.412 591.309L312.05 591.44L314.787 585.891L315.793 591.468L321.693 591.521L320.203 571.63L318.15 571.493L309.777 570.916L307.076 570.735L307.028 576.363L294.467 584.883C293.511 585.532 292.936 586.608 292.926 587.762Z" fill="#2F2E41"/>
<path d="M358.134 575.256L350.269 575.19L346.787 544.146L358.395 544.244L358.134 575.256Z" fill="#FFB8B8"/>
<path d="M332.942 587.762C332.924 589.698 334.485 591.291 336.428 591.309L352.065 591.44L354.803 585.891L355.808 591.468L361.708 591.521L360.218 571.63L358.165 571.493L349.792 570.916L347.091 570.735L347.044 576.363L334.482 584.883C333.527 585.532 332.951 586.608 332.942 587.762Z" fill="#2F2E41"/>
<path d="M287.256 324.272L319.136 325.279L349.338 331.99C349.338 331.99 346.318 335.682 356.385 345.749C356.385 345.749 369.808 369.24 360.412 392.059L356.385 483.337C356.385 483.337 368.126 547.682 359.155 568.161L347.299 568.902L327.236 484.08L317.458 392.73L312.76 482.666C312.76 482.666 330.733 544.396 319.384 568.902L306.542 568.161L284.571 482.666C284.571 482.666 275.175 384.005 276.517 365.213C277.859 346.42 287.256 324.272 287.256 324.272Z" fill="#00BEC6"/>
<path d="M394.316 180.039C389.958 181.167 387.34 185.615 388.469 189.973C388.986 191.97 390.204 193.594 391.787 194.668L391.786 194.679L391.168 209.654L402.628 214.957L403.543 191.913L403.463 191.916C404.456 190.145 404.8 188.007 404.251 185.886C403.122 181.528 398.674 178.91 394.316 180.039Z" fill="#FFB8B8"/>
<path d="M330.268 233.483C327.861 231.097 326.464 227.862 326.412 224.344C326.342 219.625 328.707 215.341 332.738 212.886C337.381 210.058 343.187 210.345 347.529 213.614L383.514 240.708L389.926 201.677L403.692 206.108L400.408 256.932C400.178 260.488 398.169 263.619 395.033 265.31C391.897 267.001 388.177 266.958 385.08 265.197L333.076 235.61C332.031 235.015 331.091 234.299 330.268 233.483Z" fill="#3F3D56"/>
<path d="M275.398 158.206C277.698 162.076 276.426 167.078 272.556 169.378C270.783 170.432 268.774 170.728 266.894 170.376L266.887 170.384L256.783 181.454L244.911 177.152L260.485 160.143L260.54 160.201C261.081 158.244 262.343 156.484 264.226 155.365C268.095 153.064 273.097 154.336 275.398 158.206Z" fill="#FFB8B8"/>
<path d="M279.762 240.786L222.001 225.183C218.562 224.254 215.89 221.665 214.853 218.256C213.817 214.848 214.595 211.209 216.935 208.523L250.385 170.118L263.281 176.663L240.354 208.895L284.985 214.99C290.37 215.725 294.695 219.61 296.001 224.886C297.135 229.468 295.799 234.175 292.426 237.477C289.912 239.939 286.643 241.253 283.253 241.253C282.095 241.253 280.922 241.099 279.762 240.786Z" fill="#3F3D56"/>
<path d="M362.111 337.701L281.339 341.406C279.12 338.037 279.721 332.971 282.828 326.628C294.558 302.678 285.649 257.37 279.657 233.777C277.975 227.158 282.489 220.577 289.285 219.897L296.901 219.136L303.94 197.646H328.596L338.824 209.332L356.183 219.877C353.023 252.423 339.56 298.38 358.74 321.427C362.935 326.468 364.124 331.919 362.111 337.701Z" fill="#3F3D56"/>
<path d="M313.132 198.142C326.395 198.142 337.147 187.39 337.147 174.127C337.147 160.864 326.395 150.112 313.132 150.112C299.869 150.112 289.117 160.864 289.117 174.127C289.117 187.39 299.869 198.142 313.132 198.142Z" fill="#FFB8B8"/>
<path d="M340.307 158.755C343.648 146.573 307.232 136.127 300.156 145.937C299.172 144.542 295.535 143.695 293.866 144.123C292.198 144.551 290.795 145.62 289.426 146.656C287.543 148.102 285.592 149.599 284.437 151.678C283.273 153.749 283.094 156.573 284.66 158.37C285.9 159.798 288.08 167.392 289.946 167.768C291.246 168.034 292.342 168.248 293.283 168.402C294.121 167.178 296.26 165.641 296.106 164.161C297.372 164.999 296.91 166.475 296.654 167.982C295.804 173.003 276.649 211.87 287.62 200.417C288.707 201.059 290.05 201.658 291.599 202.205C294.226 198.243 296.382 193.571 297.803 188.686L297.813 188.776C298.302 193.022 301.405 196.506 305.51 197.695C321.978 202.466 335.298 195.465 339.881 182.841C338.203 179.436 337.472 179.805 337.623 179.704C339.717 178.293 342.595 179.216 343.495 181.575C343.76 182.271 344.001 182.865 344.21 183.312C346.598 174.772 349.437 176.005 340.307 158.755Z" fill="#2F2E41"/>
<path d="M328.946 149.917L327.264 141.317C327.123 140.594 326.989 139.81 327.315 139.149C327.733 138.3 328.81 137.949 329.747 138.084C330.684 138.219 331.384 139.075 332.316 139.239C335.557 139.812 339.84 136.612 341.001 144.709C341.485 148.085 346.872 148.441 348.671 151.339C350.47 154.236 350.691 158.418 348.236 160.785C346.275 162.676 343.126 162.894 340.579 161.928C338.032 160.962 335.988 159.012 334.202 156.955C332.417 154.898 330.8 152.672 328.741 150.889" fill="#2F2E41"/>
<path d="M341.59 162.997C335.019 162.079 330.539 159.689 328.277 155.894C325.316 150.927 327.299 145.457 327.385 145.227L328.774 145.743C328.756 145.793 326.956 150.8 329.558 155.148C331.582 158.531 335.699 160.678 341.795 161.53L341.59 162.997Z" fill="#00BEC6"/>
<path d="M372.427 70.0749C353.109 70.0749 337.39 54.3559 337.39 35.0374C337.39 15.7189 353.109 0 372.427 0C391.746 0 407.465 15.7189 407.465 35.0374C407.465 54.3559 391.746 70.0749 372.427 70.0749ZM372.427 14.015C360.835 14.015 351.405 23.445 351.405 35.0374C351.405 46.6299 360.835 56.0599 372.427 56.0599C384.02 56.0599 393.45 46.6299 393.45 35.0374C393.45 23.445 384.02 14.015 372.427 14.015Z" fill="#00BEC6"/>
<path d="M426.335 93.886C424.617 93.886 422.896 93.2598 421.544 91.9904L388.659 61.1718C385.833 58.5269 385.689 54.0925 388.338 51.2696C390.979 48.4365 395.413 48.2962 398.24 50.948L431.125 81.7666C433.951 84.4115 434.095 88.8459 431.447 91.6687C430.068 93.1435 428.203 93.886 426.335 93.886Z" fill="#00BEC6"/>
<path d="M574.96 574.469C577.343 574.618 578.66 571.658 576.857 569.933L576.678 569.22C576.701 569.163 576.725 569.106 576.749 569.049C579.158 563.303 587.324 563.343 589.713 569.097C591.834 574.204 594.533 579.319 595.198 584.719C595.496 587.102 595.362 589.531 594.833 591.87C599.801 581.017 602.416 569.166 602.416 557.248C602.416 554.253 602.252 551.259 601.917 548.272C601.641 545.829 601.261 543.401 600.77 540.995C598.11 527.989 592.352 515.602 584.047 505.256C580.054 503.073 576.725 499.661 574.714 495.572C573.991 494.097 573.425 492.511 573.157 490.894C573.611 490.954 574.87 484.034 574.528 483.609C575.161 482.649 576.294 482.171 576.986 481.233C580.425 476.57 585.164 477.384 587.637 483.721C592.922 486.388 592.973 490.811 589.731 495.066C587.668 497.772 587.384 501.434 585.574 504.332C585.76 504.57 585.954 504.801 586.14 505.039C589.555 509.419 592.509 514.127 594.998 519.073C594.295 513.576 595.334 506.954 597.105 502.686C599.121 497.822 602.9 493.726 606.228 489.521C610.225 484.471 618.421 486.675 619.126 493.077C619.133 493.139 619.139 493.201 619.146 493.263C618.651 493.542 618.167 493.838 617.694 494.151C614.996 495.935 615.929 500.118 619.125 500.611L619.198 500.622C619.019 502.403 618.714 504.168 618.267 505.904C622.536 522.413 613.319 528.427 600.159 528.697C599.868 528.846 599.585 528.995 599.295 529.136C600.628 532.89 601.693 536.741 602.483 540.645C603.19 544.093 603.682 547.579 603.958 551.08C604.3 555.497 604.27 559.937 603.898 564.346L603.92 564.19C604.866 559.334 607.503 554.797 611.332 551.654C617.035 546.969 625.094 545.243 631.247 541.477C634.209 539.664 638.004 542.007 637.487 545.441L637.462 545.605C636.546 545.978 635.652 546.41 634.788 546.894C634.294 547.173 633.81 547.469 633.336 547.782C630.638 549.566 631.571 553.749 634.768 554.242L634.84 554.253C634.892 554.261 634.937 554.268 634.989 554.276C633.417 558.008 631.228 561.471 628.486 564.458C625.817 578.871 614.352 580.238 602.088 576.041H602.081C600.74 581.881 598.781 587.587 596.263 593.024H575.481C575.406 592.793 575.339 592.555 575.272 592.324C577.194 592.443 579.131 592.331 581.023 591.981C579.481 590.089 577.939 588.183 576.397 586.291C576.36 586.253 576.33 586.216 576.3 586.179C575.518 585.211 574.729 584.25 573.947 583.281L573.946 583.28C573.897 580.308 574.254 577.344 574.96 574.469Z" fill="#00BEC6"/>
<path d="M0 593.086C0 593.847 0.611263 594.459 1.37245 594.459H636.001C636.762 594.459 637.373 593.847 637.373 593.086C637.373 592.325 636.762 591.714 636.001 591.714H1.37245C0.611263 591.714 0 592.325 0 593.086Z" fill="#00BEC6"/>
</svg>
