<svg width="645" height="558" viewBox="0 0 645 558" fill="none" xmlns="http://www.w3.org/2000/svg">
<path d="M644.137 0.365234H0.274902V412.723H644.137V0.365234Z" fill="#E6E6E6"/>
<path d="M625.726 52.085H18.686V388.328H625.726V52.085Z" fill="white"/>
<path d="M643.862 0H0V27.3536H643.862V0Z" fill="#00BEC6"/>
<path d="M20.3271 19.0546C23.1271 19.0546 25.3969 16.7848 25.3969 13.9848C25.3969 11.1849 23.1271 8.91504 20.3271 8.91504C17.5271 8.91504 15.2573 11.1849 15.2573 13.9848C15.2573 16.7848 17.5271 19.0546 20.3271 19.0546Z" fill="white"/>
<path d="M39.5705 19.0546C42.3705 19.0546 44.6403 16.7848 44.6403 13.9848C44.6403 11.1849 42.3705 8.91504 39.5705 8.91504C36.7705 8.91504 34.5007 11.1849 34.5007 13.9848C34.5007 16.7848 36.7705 19.0546 39.5705 19.0546Z" fill="white"/>
<path d="M58.8142 19.0546C61.6141 19.0546 63.8839 16.7848 63.8839 13.9848C63.8839 11.1849 61.6141 8.91504 58.8142 8.91504C56.0142 8.91504 53.7444 11.1849 53.7444 13.9848C53.7444 16.7848 56.0142 19.0546 58.8142 19.0546Z" fill="white"/>
<path d="M229.824 86.9727H73.8438V353.439H229.824V86.9727Z" fill="#E6E6E6"/>
<path d="M386.733 86.9727H256.75V160.321H386.733V86.9727Z" fill="#00BEC6"/>
<path d="M386.733 180.747H256.75V259.666H386.733V180.747Z" fill="#E6E6E6"/>
<path d="M386.733 280.092H256.75V353.44H386.733V280.092Z" fill="#E6E6E6"/>
<path d="M570.568 86.9727H414.587V203.097H570.568V86.9727Z" fill="#E6E6E6"/>
<path d="M570.568 237.315H414.587V353.44H570.568V237.315Z" fill="#E6E6E6"/>
<path d="M510.479 211.44V186.44C510.479 177.555 514.008 169.034 520.29 162.752C526.573 156.469 535.094 152.94 543.979 152.94C552.863 152.94 561.384 156.469 567.667 162.752C573.949 169.034 577.479 177.555 577.479 186.44V211.44C577.477 212.633 577.003 213.777 576.159 214.62C575.315 215.464 574.172 215.939 572.979 215.94H514.979C513.785 215.939 512.642 215.464 511.798 214.62C510.954 213.777 510.48 212.633 510.479 211.44Z" fill="#2F2E41"/>
<path d="M593.514 536.786L581.698 540.056L563.462 496.038L580.901 491.212L593.514 536.786Z" fill="#FFB8B8"/>
<path d="M572.324 539.016L595.111 532.71L599.082 547.057L561.947 557.334C561.426 555.45 561.281 553.482 561.52 551.542C561.759 549.601 562.378 547.727 563.342 546.026C564.305 544.325 565.595 542.831 567.136 541.628C568.677 540.425 570.44 539.538 572.324 539.016Z" fill="#00BEC6"/>
<path d="M470.328 545.875H458.068L452.235 498.587H470.33L470.328 545.875Z" fill="#FFB8B8"/>
<path d="M449.311 542.372H472.955V557.258H434.424C434.424 555.304 434.809 553.368 435.557 551.562C436.305 549.755 437.402 548.114 438.784 546.732C440.166 545.349 441.808 544.253 443.614 543.505C445.42 542.757 447.356 542.372 449.311 542.372Z" fill="#00BEC6"/>
<path d="M455.544 281.598C456.42 282.779 457.543 283.754 458.836 284.454C460.128 285.154 461.559 285.563 463.026 285.65C464.494 285.738 465.963 285.502 467.329 284.961C468.696 284.419 469.927 283.584 470.936 282.515L503.527 297.173L500.562 278.842L470.069 267.733C468.16 266.156 465.74 265.335 463.267 265.423C460.793 265.512 458.438 266.505 456.648 268.214C454.858 269.923 453.757 272.23 453.553 274.696C453.35 277.163 454.058 279.619 455.544 281.598Z" fill="#FFB8B8"/>
<path d="M523.259 391.836C513.02 391.836 502.42 390.311 493.51 385.775C488.78 383.414 484.589 380.103 481.198 376.048C477.806 371.993 475.288 367.282 473.801 362.209C469.159 347.51 475.012 333.069 480.673 319.104C484.18 310.45 487.493 302.277 488.353 294.22L488.653 291.36C489.992 278.512 491.148 267.417 497.55 263.255C500.869 261.098 505.33 260.975 511.191 262.878L566.236 280.759L564.212 385.25L563.877 385.361C563.589 385.458 544.185 391.836 523.259 391.836Z" fill="#2F2E41"/>
<path d="M510.229 230.348C510.229 230.348 537.229 222.348 558.229 225.348C558.229 225.348 546.229 291.348 550.229 313.348C554.229 335.348 480.729 321.848 495.729 300.848L500.729 275.848C500.729 275.848 490.729 265.848 499.729 253.848L510.229 230.348Z" fill="#00BEC6"/>
<path d="M496.948 389.855L463.672 383.616L475.29 294.209C476.071 291.713 494.068 235.066 502.241 232.001C508.176 229.911 514.245 228.225 520.407 226.954L521.591 226.717L514.919 236.726L488.354 300.38L496.948 389.855Z" fill="#2F2E41"/>
<path d="M479.61 534.918L436.615 527.753L460.743 429.229L496.646 294.492L497 296.884C497.029 297.062 500.383 314.664 550.151 306.854L550.589 306.786L550.71 307.212L610.862 519.75L561.871 527.914L517.188 372.848L479.61 534.918Z" fill="#00BEC6"/>
<path d="M539.202 406.587L539.229 405.83C539.259 404.99 542.217 321.458 541.229 287.863C540.237 254.154 551.151 224.962 551.261 224.671L551.35 224.437L551.591 224.367C565.711 220.334 577.96 232.373 578.082 232.495L578.254 232.667L574.233 265.843L591.449 386.484L539.202 406.587Z" fill="#2F2E41"/>
<path d="M537.095 215.358C550.659 215.358 561.656 204.362 561.656 190.797C561.656 177.232 550.659 166.236 537.095 166.236C523.53 166.236 512.534 177.232 512.534 190.797C512.534 204.362 523.53 215.358 537.095 215.358Z" fill="#FFB8B8"/>
<path d="M502.553 188.44C502.561 181.414 505.356 174.678 510.324 169.71C515.292 164.742 522.027 161.948 529.053 161.94H534.053C541.079 161.948 547.815 164.742 552.783 169.71C557.751 174.678 560.545 181.414 560.553 188.44V188.94H549.987L546.383 178.848L545.662 188.94H540.201L538.383 183.848L538.019 188.94H502.553V188.44Z" fill="#2F2E41"/>
<path d="M534.678 218.751C534.182 218.08 533.885 217.281 533.823 216.449C533.761 215.616 533.935 214.783 534.325 214.044C539.624 203.966 547.043 185.344 537.195 173.86L536.488 173.035H565.075V215.955L539.106 220.537C538.843 220.583 538.576 220.607 538.309 220.607C537.6 220.607 536.901 220.439 536.27 220.116C535.639 219.794 535.093 219.326 534.678 218.751Z" fill="#2F2E41"/>
<path d="M419.58 41.5465C399.576 24.6668 375.097 13.9653 349.122 10.7442C323.147 7.52309 296.795 11.9213 273.274 23.4035C249.753 34.8858 230.077 52.957 216.639 75.4183C203.201 97.8795 196.581 123.762 197.585 149.917C198.59 176.072 207.174 201.371 222.294 222.736C237.415 244.101 258.419 260.61 282.751 270.256C307.083 279.901 333.694 282.266 359.346 277.063C384.998 271.86 408.584 259.313 427.235 240.949L592.853 380.697C595.373 382.827 598.636 383.87 601.925 383.594C605.213 383.319 608.257 381.748 610.388 379.229C612.518 376.709 613.56 373.446 613.285 370.157C613.009 366.869 611.439 363.825 608.919 361.694L608.901 361.679L443.283 221.931C462.522 194.318 470.757 160.515 466.372 127.147C461.988 93.7795 445.3 63.2517 419.58 41.5465ZM408.903 208.474C396.001 223.765 378.854 234.887 359.631 240.432C340.408 245.978 319.972 245.699 300.907 239.63C281.843 233.562 265.006 221.976 252.526 206.338C240.046 190.701 232.483 171.714 230.794 151.778C229.106 131.842 233.366 111.853 243.037 94.3392C252.709 76.825 267.357 62.5719 285.128 53.3825C302.9 44.1931 322.998 40.48 342.88 42.7127C362.762 44.9455 381.536 53.0239 396.827 65.9262C406.979 74.4931 415.346 84.9758 421.447 96.7759C427.549 108.576 431.266 121.462 432.388 134.699C433.509 147.936 432.012 161.264 427.983 173.922C423.953 186.581 417.47 198.321 408.903 208.474Z" fill="#3F3D56"/>
<path opacity="0.3" d="M266.355 220.551C246.949 204.174 234.411 181.099 231.231 155.906C228.051 130.714 234.462 105.246 249.19 84.5615C247.256 86.5094 245.386 88.5493 243.58 90.6814C235.013 100.834 228.53 112.575 224.501 125.233C220.471 137.892 218.975 151.22 220.096 164.457C221.217 177.693 224.935 190.58 231.037 202.38C237.138 214.18 245.504 224.662 255.657 233.229C265.81 241.796 277.55 248.279 290.209 252.309C302.867 256.338 316.195 257.835 329.432 256.714C342.669 255.592 355.555 251.875 367.355 245.773C379.155 239.672 389.638 231.306 398.205 221.153C400.006 219.018 401.702 216.832 403.294 214.594C385.381 232.592 361.356 243.195 335.987 244.299C310.619 245.402 285.763 236.925 266.355 220.551Z" fill="black"/>
<path d="M544.98 324.536C546.408 324.885 547.896 324.917 549.337 324.629C550.779 324.341 552.14 323.741 553.324 322.87C554.509 322 555.488 320.88 556.193 319.59C556.898 318.3 557.311 316.871 557.404 315.404L591.837 305.846L577.84 293.643L547.288 304.589C544.813 304.597 542.427 305.512 540.581 307.161C538.735 308.81 537.559 311.079 537.275 313.538C536.99 315.996 537.617 318.474 539.038 320.501C540.458 322.528 542.572 323.964 544.98 324.536Z" fill="#FFB8B8"/>
<path d="M559.292 319.477L557.197 299.571L585.959 283.702L567.207 261.001L570.266 235.502L577.886 232.236L578.123 232.541C581.716 237.161 613.228 277.822 613.228 282.848C613.228 288.011 607.2 303.171 598.952 307.295C590.996 311.273 561.121 319.005 559.853 319.332L559.292 319.477Z" fill="#2F2E41"/>
</svg>
