<svg width="426" height="142" viewBox="0 0 426 142" fill="none" xmlns="http://www.w3.org/2000/svg">
<path d="M396.733 22.1468H173.002C160.43 22.1468 150.238 32.3539 150.238 44.945V119.202C150.238 131.793 160.43 142 173.002 142H396.733C409.305 142 419.496 131.793 419.496 119.202V44.945C419.496 32.3539 409.305 22.1468 396.733 22.1468Z" fill="#DDE6E9"/>
<path d="M247.133 87.8309L240.689 93.8184C238.634 93.0758 236.415 92.6817 234.083 92.6817C223.985 92.6817 215.812 100.276 215.812 109.66C215.812 119.044 223.985 126.639 234.083 126.639C244.181 126.639 252.353 119.044 252.353 109.66C252.353 107.492 251.913 105.43 251.13 103.521L257.573 97.5325L264.017 103.521C263.218 105.43 262.794 107.492 262.794 109.66C262.794 119.044 270.967 126.639 281.064 126.639C291.162 126.639 299.335 119.044 299.335 109.66C299.335 100.276 291.162 92.6817 281.064 92.6817C278.731 92.6817 276.513 93.0908 274.457 93.8184L228.341 50.9632C227.182 49.8869 225.322 49.8869 224.164 50.9632C219.547 55.2533 219.547 62.1963 224.164 66.4866L247.133 87.8309ZM271.701 84.4047L290.983 66.4866C295.599 62.1963 295.599 55.2533 290.983 50.9632C289.824 49.8869 287.965 49.8869 286.807 50.9632L261.26 74.7024L271.701 84.4047ZM234.083 116.936C233.054 116.936 232.036 116.748 231.086 116.383C230.136 116.017 229.273 115.481 228.545 114.805C227.818 114.13 227.242 113.327 226.849 112.444C226.455 111.562 226.252 110.615 226.252 109.66C226.252 108.704 226.455 107.758 226.849 106.875C227.242 105.993 227.818 105.191 228.545 104.515C229.273 103.839 230.136 103.303 231.086 102.938C232.036 102.572 233.054 102.383 234.083 102.383C235.111 102.383 236.129 102.572 237.079 102.938C238.029 103.303 238.892 103.839 239.619 104.515C240.347 105.191 240.923 105.993 241.317 106.875C241.71 107.758 241.913 108.704 241.913 109.66C241.913 110.615 241.71 111.562 241.317 112.444C240.923 113.327 240.347 114.13 239.619 114.805C238.892 115.481 238.029 116.017 237.079 116.383C236.129 116.748 235.111 116.936 234.083 116.936ZM273.234 109.66C273.234 108.704 273.437 107.758 273.83 106.875C274.224 105.993 274.801 105.191 275.528 104.515C276.255 103.839 277.118 103.303 278.067 102.938C279.018 102.572 280.036 102.383 281.064 102.383C282.093 102.383 283.11 102.572 284.061 102.938C285.011 103.303 285.874 103.839 286.601 104.515C287.328 105.191 287.905 105.993 288.299 106.875C288.692 107.758 288.894 108.704 288.894 109.66C288.894 110.615 288.692 111.562 288.299 112.444C287.905 113.327 287.328 114.13 286.601 114.805C285.874 115.481 285.011 116.017 284.061 116.383C283.11 116.748 282.093 116.936 281.064 116.936C280.036 116.936 279.018 116.748 278.067 116.383C277.118 116.017 276.255 115.481 275.528 114.805C274.801 114.13 274.224 113.327 273.83 112.444C273.437 111.562 273.234 110.615 273.234 109.66Z" fill="#003443"/>
<path d="M28.3306 112.766H48.9347V126.367H19.1993C14.0482 121.521 10.1459 115.385 7.49239 107.959C4.83883 100.533 3.51205 92.9123 3.51205 85.0958C3.51205 77.2011 4.99492 69.6191 7.96066 62.3497C10.9264 55.0804 15.336 49.0617 21.1894 44.2936H48.9347V58.3633H28.3306C26.2234 60.7864 24.3893 64.6947 22.8284 70.0881C21.3455 75.4815 20.6041 80.6404 20.6041 85.5648C20.6041 90.4892 21.3455 95.6481 22.8284 101.041C24.3893 106.435 26.2234 110.343 28.3306 112.766ZM76.5154 126.367H64.2232C60.7892 121.99 58.4478 117.612 57.199 113.235C55.9503 108.858 55.3259 103.386 55.3259 96.8205V66.4534H70.8961V97.993C70.8961 105.106 72.301 110.46 75.1106 114.056H85.998V66.4534H101.568V126.367H89.2759L87.1687 122.146C84.203 124.96 80.6519 126.367 76.5154 126.367ZM115.097 100.221V78.7644H107.019V66.4534H115.097V50.156H130.667V66.4534H140.267V78.7644H130.667V103.973C130.667 108.741 131.486 112.102 133.125 114.056H140.267V126.367H123.643C119.506 122.537 117.009 118.394 116.15 113.939C115.448 110.187 115.097 105.614 115.097 100.221Z" fill="white"/>
<path d="M167.389 126.367V44.2936H183.427V112.766H207.777V126.367H167.389ZM334.899 66.4534H347.308C350.742 70.8306 353.084 75.2079 354.332 79.5851C355.581 83.9624 356.206 89.4339 356.206 95.9998V126.367H340.635V94.8273C340.635 87.4017 339.621 82.0473 337.592 78.7644H324.48V126.367H308.91V66.4534H321.085L323.192 70.6743C324.909 69.111 326.509 68.0167 327.992 67.3914C329.553 66.7661 331.855 66.4534 334.899 66.4534ZM365.844 126.367V44.2936H381.414V87.7925H383.053L394.057 66.4534H409.276L395.462 92.5996L409.393 126.367H393.94L383.17 100.103H381.414V126.367H365.844Z" fill="#003443"/>
</svg>
