<svg width="125" height="143" viewBox="0 0 125 143" fill="none" xmlns="http://www.w3.org/2000/svg">
<path d="M0 22.3438C0 14.9424 5.99888 8.9375 13.3929 8.9375H40.1786C47.5725 8.9375 53.5714 14.9424 53.5714 22.3438V49.1562C53.5714 56.5576 47.5725 62.5625 40.1786 62.5625H13.3929C5.99888 62.5625 0 56.5576 0 49.1562V22.3438ZM17.8571 26.8125V44.6875H35.7143V26.8125H17.8571ZM0 93.8438C0 86.4424 5.99888 80.4375 13.3929 80.4375H40.1786C47.5725 80.4375 53.5714 86.4424 53.5714 93.8438V120.656C53.5714 128.058 47.5725 134.062 40.1786 134.062H13.3929C5.99888 134.062 0 128.058 0 120.656V93.8438ZM17.8571 98.3125V116.188H35.7143V98.3125H17.8571ZM84.8214 8.9375H111.607C119.001 8.9375 125 14.9424 125 22.3438V49.1562C125 56.5576 119.001 62.5625 111.607 62.5625H84.8214C77.4275 62.5625 71.4286 56.5576 71.4286 49.1562V22.3438C71.4286 14.9424 77.4275 8.9375 84.8214 8.9375ZM107.143 26.8125H89.2857V44.6875H107.143V26.8125ZM71.4286 84.9062C71.4286 82.4484 73.4375 80.4375 75.8929 80.4375H93.75C96.2054 80.4375 98.2143 82.4484 98.2143 84.9062C98.2143 87.3641 100.223 89.375 102.679 89.375H111.607C114.063 89.375 116.071 87.3641 116.071 84.9062C116.071 82.4484 118.08 80.4375 120.536 80.4375C122.991 80.4375 125 82.4484 125 84.9062V111.719C125 114.177 122.991 116.188 120.536 116.188H102.679C100.223 116.188 98.2143 114.177 98.2143 111.719C98.2143 109.261 96.2054 107.25 93.75 107.25C91.2946 107.25 89.2857 109.261 89.2857 111.719V129.594C89.2857 132.052 87.2768 134.062 84.8214 134.062H75.8929C73.4375 134.062 71.4286 132.052 71.4286 129.594V84.9062ZM102.679 134.062C101.495 134.062 100.359 133.592 99.5218 132.754C98.6846 131.916 98.2143 130.779 98.2143 129.594C98.2143 128.409 98.6846 127.272 99.5218 126.434C100.359 125.596 101.495 125.125 102.679 125.125C103.863 125.125 104.998 125.596 105.835 126.434C106.673 127.272 107.143 128.409 107.143 129.594C107.143 130.779 106.673 131.916 105.835 132.754C104.998 133.592 103.863 134.062 102.679 134.062ZM120.536 134.062C119.352 134.062 118.216 133.592 117.379 132.754C116.542 131.916 116.071 130.779 116.071 129.594C116.071 128.409 116.542 127.272 117.379 126.434C118.216 125.596 119.352 125.125 120.536 125.125C121.72 125.125 122.855 125.596 123.692 126.434C124.53 127.272 125 128.409 125 129.594C125 130.779 124.53 131.916 123.692 132.754C122.855 133.592 121.72 134.062 120.536 134.062Z" fill="#00BEC6"/>
</svg>
