<svg width="154" height="140" viewBox="0 0 154 140" fill="none" xmlns="http://www.w3.org/2000/svg">
<path d="M57.7509 68.9633L45.8695 79.9232C42.0801 78.5639 37.9885 77.8426 33.6883 77.8426C15.07 77.8426 0 91.7439 0 108.921C0 126.097 15.07 140 33.6883 140C52.3067 140 67.3755 126.097 67.3755 108.921C67.3755 104.953 66.5636 101.179 65.1198 97.6829L77 86.7219L88.8814 97.6829C87.4076 101.179 86.6258 104.953 86.6258 108.921C86.6258 126.097 101.695 140 120.313 140C138.931 140 154 126.097 154 108.921C154 91.7439 138.931 77.8426 120.313 77.8426C116.011 77.8426 111.921 78.5913 108.13 79.9232L23.1008 1.47766C20.9651 -0.492552 17.5355 -0.492552 15.4009 1.47766C6.88803 9.33059 6.88803 22.0395 15.4009 29.8929L57.7509 68.9633ZM103.048 62.6916L138.6 29.8929C147.112 22.0395 147.112 9.33059 138.6 1.47766C136.465 -0.492552 133.036 -0.492552 130.9 1.47766L83.7981 44.9318L103.048 62.6916ZM33.6883 122.24C31.7924 122.24 29.9146 121.896 28.1626 121.227C26.4118 120.557 24.8193 119.577 23.4786 118.339C22.1379 117.102 21.0754 115.634 20.3499 114.018C19.6244 112.402 19.2503 110.67 19.2503 108.921C19.2503 107.172 19.6244 105.44 20.3499 103.823C21.0754 102.208 22.1379 100.74 23.4786 99.5024C24.8193 98.266 26.4118 97.2847 28.1626 96.6158C29.9146 95.9457 31.7924 95.6011 33.6883 95.6011C35.5842 95.6011 37.4609 95.9457 39.2129 96.6158C40.9649 97.2847 42.5562 98.266 43.8969 99.5024C45.2375 100.74 46.3012 102.208 47.0267 103.823C47.7522 105.44 48.1251 107.172 48.1251 108.921C48.1251 110.67 47.7522 112.402 47.0267 114.018C46.3012 115.634 45.2375 117.102 43.8969 118.339C42.5562 119.577 40.9649 120.557 39.2129 121.227C37.4609 121.896 35.5842 122.24 33.6883 122.24ZM105.875 108.921C105.875 107.172 106.249 105.44 106.974 103.823C107.7 102.208 108.764 100.74 110.104 99.5024C111.445 98.266 113.036 97.2847 114.787 96.6158C116.539 95.9457 118.417 95.6011 120.313 95.6011C122.209 95.6011 124.085 95.9457 125.837 96.6158C127.589 97.2847 129.181 98.266 130.521 99.5024C131.862 100.74 132.926 102.208 133.651 103.823C134.377 105.44 134.75 107.172 134.75 108.921C134.75 110.67 134.377 112.402 133.651 114.018C132.926 115.634 131.862 117.102 130.521 118.339C129.181 119.577 127.589 120.557 125.837 121.227C124.085 121.896 122.209 122.24 120.313 122.24C118.417 122.24 116.539 121.896 114.787 121.227C113.036 120.557 111.445 119.577 110.104 118.339C108.764 117.102 107.7 115.634 106.974 114.018C106.249 112.402 105.875 110.67 105.875 108.921Z" fill="#00BEC6"/>
</svg>
